<?xml version="1.0" encoding="UTF-8" standalone="no"?>
<!-- Created with Inkscape (http://www.inkscape.org/) -->

<svg
   xmlns:dc="http://purl.org/dc/elements/1.1/"
   xmlns:cc="http://creativecommons.org/ns#"
   xmlns:rdf="http://www.w3.org/1999/02/22-rdf-syntax-ns#"
   xmlns:svg="http://www.w3.org/2000/svg"
   xmlns="http://www.w3.org/2000/svg"
   xmlns:sodipodi="http://sodipodi.sourceforge.net/DTD/sodipodi-0.dtd"
   xmlns:inkscape="http://www.inkscape.org/namespaces/inkscape"
   width="700"
   height="700"
   id="svg2"
   version="1.1"
   inkscape:version="0.48.3.1 r9886"
   sodipodi:docname="mobius.svg"
   inkscape:export-filename="/home/akathorn/pyweek/media/mobius.png"
   inkscape:export-xdpi="90"
   inkscape:export-ydpi="90">
  <defs
     id="defs4" />
  <sodipodi:namedview
     id="base"
     pagecolor="#ffffff"
     bordercolor="#666666"
     borderopacity="1.0"
     inkscape:pageopacity="0.0"
     inkscape:pageshadow="2"
     inkscape:zoom="0.49497475"
     inkscape:cx="520.12042"
     inkscape:cy="310.13624"
     inkscape:document-units="px"
     inkscape:current-layer="g3030"
     showgrid="false"
     fit-margin-top="0"
     fit-margin-left="0"
     fit-margin-right="0"
     fit-margin-bottom="0"
     inkscape:window-width="1280"
     inkscape:window-height="724"
     inkscape:window-x="0"
     inkscape:window-y="24"
     inkscape:window-maximized="1" />
  <metadata
     id="metadata7">
    <rdf:RDF>
      <cc:Work
         rdf:about="">
        <dc:format>image/svg+xml</dc:format>
        <dc:type
           rdf:resource="http://purl.org/dc/dcmitype/StillImage" />
        <dc:title></dc:title>
      </cc:Work>
    </rdf:RDF>
  </metadata>
  <g
     inkscape:label="Layer 1"
     inkscape:groupmode="layer"
     id="layer1"
     transform="translate(-49.116383,112.36851)">
    <g
       id="g3030">
      <g
         id="g3037"
         transform="matrix(-1,0,0,1,800.41461,0)">
        <path
           style="fill:#cccccc;stroke:#000000;stroke-width:12.1226387;stroke-linecap:butt;stroke-linejoin:miter;stroke-miterlimit:4;stroke-opacity:1;stroke-dasharray:none"
           d="m 259.19848,70.44844 c 194.1771,-19.21334 207.61273,188.7775 228.27159,195.77716 14.3434,4.85983 73.74554,37.92272 67.76482,14.21869 -14.37461,-56.97255 -9.2711,-103.54683 16.31736,-117.5107 93.15797,-50.83723 3.9345,11.23238 42.26662,52.46725 9.52297,10.24411 -8.8176,40.58894 14.52498,50.45975 7.12735,3.01392 4.52434,-14.00144 53.79663,4.52926 56.57145,21.2758 74.29293,-21.5223 38.50871,47.32595 -14.59219,28.07516 -69.69721,41.02376 -88.04598,28.69639 -19.32169,-12.98102 -55.47474,-33.86122 -75.81675,8.68576 -25.24,52.7915 -423.75459,85.20582 -461.753715,33.67933 C 43.779618,319.27847 52.206951,79.64512 110.80779,70.96293 127.90884,68.42928 259.19848,70.44844 259.19848,70.44844 z"
           id="path3060"
           inkscape:connector-curvature="0"
           sodipodi:nodetypes="csssssssssssc" />
        <path
           style="fill:none;stroke:#000000;stroke-width:8.04780293;stroke-linecap:butt;stroke-linejoin:miter;stroke-miterlimit:4;stroke-opacity:1;stroke-dasharray:none"
           d="M 81.724747,367.29591 C 189.62877,343.42879 199.5673,379.22949 208.08605,318.06995"
           id="path3830"
           inkscape:connector-curvature="0" />
        <path
           sodipodi:type="arc"
           style="fill:#ffffff;stroke:#000000;stroke-width:7.9000001;stroke-miterlimit:4;stroke-opacity:1;stroke-dasharray:none"
           id="path3832"
           sodipodi:cx="75.714287"
           sodipodi:cy="565.93359"
           sodipodi:rx="25.714285"
           sodipodi:ry="10.714286"
           d="m 101.42857,565.93359 c 0,5.91734 -11.512676,10.71429 -25.714283,10.71429 -14.201608,0 -25.714285,-4.79695 -25.714285,-10.71429 0,-5.91733 11.512677,-10.71428 25.714285,-10.71428 14.201607,0 25.714283,4.79695 25.714283,10.71428 z"
           transform="matrix(0.99385293,0,0,1.0441873,103.02159,-369.08505)" />
        <path
           sodipodi:type="arc"
           style="fill:#000000;stroke:#000000;stroke-width:7.9000001;stroke-miterlimit:4;stroke-opacity:1;stroke-dasharray:none"
           id="path3836"
           sodipodi:cx="133.57143"
           sodipodi:cy="595.2193"
           sodipodi:rx="7.8571429"
           sodipodi:ry="8.5714283"
           d="m 141.42857,595.2193 c 0,4.73387 -3.51776,8.57143 -7.85714,8.57143 -4.33938,0 -7.85715,-3.83756 -7.85715,-8.57143 0,-4.73387 3.51777,-8.57143 7.85715,-8.57143 4.33938,0 7.85714,3.83756 7.85714,8.57143 z"
           transform="matrix(0.99385293,0,0,1.0441873,33.451891,-399.66482)" />
        <path
           style="fill:#cccccc;stroke:#000000;stroke-width:10.18709278;stroke-linecap:round;stroke-linejoin:miter;stroke-miterlimit:4;stroke-opacity:1;stroke-dasharray:none"
           d="m 262.48137,389.25173 c 71.27995,93.87617 120.47316,41.13674 120.47316,41.13674 0,0 49.1932,-52.73941 -65.2563,-69.61603"
           id="path3842"
           inkscape:connector-curvature="0" />
      </g>
    </g>
  </g>
</svg>
