<?xml version="1.0" encoding="UTF-8" standalone="no"?>
<!-- Created with Inkscape (http://www.inkscape.org/) -->

<svg
   xmlns:dc="http://purl.org/dc/elements/1.1/"
   xmlns:cc="http://creativecommons.org/ns#"
   xmlns:rdf="http://www.w3.org/1999/02/22-rdf-syntax-ns#"
   xmlns:svg="http://www.w3.org/2000/svg"
   xmlns="http://www.w3.org/2000/svg"
   xmlns:sodipodi="http://sodipodi.sourceforge.net/DTD/sodipodi-0.dtd"
   xmlns:inkscape="http://www.inkscape.org/namespaces/inkscape"
   width="694.16132"
   height="370.9747"
   id="svg2"
   version="1.1"
   inkscape:version="0.48.3.1 r9886"
   sodipodi:docname="New document 1">
  <defs
     id="defs4" />
  <sodipodi:namedview
     id="base"
     pagecolor="#ffffff"
     bordercolor="#666666"
     borderopacity="1.0"
     inkscape:pageopacity="0.0"
     inkscape:pageshadow="2"
     inkscape:zoom="0.49497475"
     inkscape:cx="196.87161"
     inkscape:cy="310.13624"
     inkscape:document-units="px"
     inkscape:current-layer="layer1"
     showgrid="false"
     fit-margin-top="0"
     fit-margin-left="0"
     fit-margin-right="0"
     fit-margin-bottom="0"
     inkscape:window-width="1280"
     inkscape:window-height="724"
     inkscape:window-x="0"
     inkscape:window-y="24"
     inkscape:window-maximized="1" />
  <metadata
     id="metadata7">
    <rdf:RDF>
      <cc:Work
         rdf:about="">
        <dc:format>image/svg+xml</dc:format>
        <dc:type
           rdf:resource="http://purl.org/dc/dcmitype/StillImage" />
        <dc:title></dc:title>
      </cc:Work>
    </rdf:RDF>
  </metadata>
  <g
     inkscape:label="Layer 1"
     inkscape:groupmode="layer"
     id="layer1"
     transform="translate(-49.116383,-216.65679)">
    <path
       style="fill:#cccccc;stroke:#000000;stroke-width:11.89999962;stroke-linecap:butt;stroke-linejoin:miter;stroke-miterlimit:4;stroke-opacity:1;stroke-dasharray:none"
       d="m 254.28572,223.79076 c 195.3781,-18.40028 208.89683,180.78895 229.68348,187.4924 14.4321,4.65418 74.20166,36.31794 68.18395,13.61699 -14.46352,-54.56162 -9.32846,-99.165 16.41828,-112.53797 93.73416,-48.68592 3.95882,10.75707 42.52804,50.24699 9.58187,9.81061 -8.87214,38.87133 14.61482,48.32443 7.17143,2.88638 4.55232,-13.40893 54.12937,4.33759 56.92135,20.37547 74.75244,-20.61153 38.7469,45.32325 -14.68245,26.8871 -70.1283,39.28774 -88.59056,27.48203 -19.4412,-12.43169 -55.81786,-32.4283 -76.28569,8.3182 -25.39611,50.55752 -426.37556,81.60014 -464.609715,32.25411 -51.570133,-66.5578 -43.090677,-296.05051 15.872625,-304.3653 17.20681,-2.42643 149.3085,-0.49272 149.3085,-0.49272 z"
       id="path3060"
       inkscape:connector-curvature="0"
       sodipodi:nodetypes="csssssssssssc" />
    <path
       style="fill:none;stroke:#000000;stroke-width:7.9000001;stroke-linecap:butt;stroke-linejoin:miter;stroke-miterlimit:4;stroke-opacity:1;stroke-dasharray:none"
       d="M 75.714286,508.07646 C 184.28571,485.21932 194.28571,519.50503 202.85714,460.93361"
       id="path3830"
       inkscape:connector-curvature="0" />
    <path
       sodipodi:type="arc"
       style="fill:#ffffff;stroke:#000000;stroke-width:7.9000001;stroke-miterlimit:4;stroke-opacity:1;stroke-dasharray:none"
       id="path3832"
       sodipodi:cx="75.714287"
       sodipodi:cy="565.93359"
       sodipodi:rx="25.714285"
       sodipodi:ry="10.714286"
       d="m 101.42857,565.93359 c 0,5.91734 -11.512676,10.71429 -25.714283,10.71429 -14.201608,0 -25.714285,-4.79695 -25.714285,-10.71429 0,-5.91733 11.512677,-10.71428 25.714285,-10.71428 14.201607,0 25.714283,4.79695 25.714283,10.71428 z"
       transform="translate(97.142857,-197.14286)" />
    <path
       sodipodi:type="arc"
       style="fill:#000000;stroke:#000000;stroke-width:7.9000001;stroke-miterlimit:4;stroke-opacity:1;stroke-dasharray:none"
       id="path3836"
       sodipodi:cx="133.57143"
       sodipodi:cy="595.2193"
       sodipodi:rx="7.8571429"
       sodipodi:ry="8.5714283"
       d="m 141.42857,595.2193 c 0,4.73387 -3.51776,8.57143 -7.85714,8.57143 -4.33938,0 -7.85715,-3.83756 -7.85715,-8.57143 0,-4.73387 3.51777,-8.57143 7.85715,-8.57143 4.33938,0 7.85714,3.83756 7.85714,8.57143 z"
       transform="translate(27.142857,-226.42858)" />
    <path
       style="fill:#cccccc;stroke:#000000;stroke-width:10;stroke-linecap:round;stroke-linejoin:miter;stroke-miterlimit:4;stroke-opacity:1;stroke-dasharray:none"
       d="m 257.5889,529.10316 c 71.72083,89.90358 121.2183,39.39595 121.2183,39.39595 0,0 49.49748,-50.50763 -65.65991,-66.67007"
       id="path3842"
       inkscape:connector-curvature="0" />
  </g>
</svg>
